<?xml version="1.0" encoding="UTF-8" standalone="no"?>
<!-- Generator: Adobe Illustrator 22.1.0, SVG Export Plug-In . SVG Version: 6.00 Build 0)  -->

<svg
   version="1.1"
   id="Layer_1"
   x="0px"
   y="0px"
   width="1440px"
   height="864px"
   viewBox="0 0 1440 864"
   style="enable-background:new 0 0 1440 864;"
   xml:space="preserve"
   sodipodi:docname="shell-game-button-box.svg"
   inkscape:version="1.1.2 (0a00cf5339, 2022-02-04)"
   xmlns:inkscape="http://www.inkscape.org/namespaces/inkscape"
   xmlns:sodipodi="http://sodipodi.sourceforge.net/DTD/sodipodi-0.dtd"
   xmlns="http://www.w3.org/2000/svg"
   xmlns:svg="http://www.w3.org/2000/svg"><defs
   id="defs23083" /><sodipodi:namedview
   id="namedview23081"
   pagecolor="#ffffff"
   bordercolor="#666666"
   borderopacity="1.0"
   inkscape:pageshadow="2"
   inkscape:pageopacity="0.0"
   inkscape:pagecheckerboard="0"
   showgrid="false"
   inkscape:zoom="0.83217593"
   inkscape:cx="640.48957"
   inkscape:cy="467.44924"
   inkscape:window-width="1916"
   inkscape:window-height="1161"
   inkscape:window-x="0"
   inkscape:window-y="18"
   inkscape:window-maximized="1"
   inkscape:current-layer="Layer_1" />
<style
   type="text/css"
   id="style22746">
	.st0{fill:none;stroke:#010101;stroke-width:0.7087;stroke-linecap:round;stroke-linejoin:round;stroke-miterlimit:10;}
	.st1{fill:none;stroke:#000000;stroke-width:0.7087;stroke-linecap:round;stroke-linejoin:round;stroke-miterlimit:10;}
</style>
<g
   id="g22771">
	<path
   class="st0"
   d="M828.1,256.8"
   id="path22748" />
	<polyline
   class="st0"
   points="295.2,203.8 221.2,203.8 221.2,164.1 212.7,164.1 212.7,144.6 221.2,144.6 221.2,113.1 212.7,113.1    212.7,96.1 221.2,96.1 221.2,64.9 212.7,64.9 212.7,47.9 221.2,47.9 221.2,33.7 912.9,33.7 912.9,47.6 921.4,47.6 921.4,64.9    912.9,64.9 912.9,110 921.4,110 921.4,127.3 912.9,127.3 912.9,170.9 921.4,170.9 921.4,187.9 912.9,187.9 912.9,203.8  "
   id="polyline22750" />
	<polyline
   class="st0"
   points="693.7,203.8 439.8,203.8 436.9,203.8  "
   id="polyline22752" />
	<path
   class="st0"
   d="M403.2,73.4c0,17.6-14.5,32-32,32c-17.6,0-32-14.5-32-32c0-17.6,14.5-32,32-32S403.2,55.8,403.2,73.4   L403.2,73.4z"
   id="path22754" />
	<g
   id="LINE_37_">
		<polyline
   class="st0"
   points="693.7,212.3 835.5,212.3 835.5,203.8 912.9,203.8   "
   id="polyline22756" />
	</g>
	<line
   class="st0"
   x1="693.7"
   y1="212.3"
   x2="693.7"
   y2="203.8"
   id="line22759" />
	<line
   class="st0"
   x1="436.9"
   y1="212.3"
   x2="436.9"
   y2="203.8"
   id="line22761" />
	<line
   class="st0"
   x1="436.9"
   y1="212.3"
   x2="295.2"
   y2="212.3"
   id="line22763" />
	<line
   class="st0"
   x1="295.2"
   y1="212.3"
   x2="295.2"
   y2="203.8"
   id="line22765" />
	<path
   class="st0"
   d="M907.8,203.8"
   id="path22767" />
	<path
   class="st0"
   d="M907.8,203.8"
   id="path22769" />
</g>
<g
   id="g22857">
	<polyline
   class="st0"
   points="695,646.5 695,638 836.7,638 836.7,646.5  "
   id="polyline22773" />
	<line
   class="st0"
   x1="219.9"
   y1="705.7"
   x2="211.4"
   y2="705.7"
   id="line22775" />
	<line
   class="st0"
   x1="211.4"
   y1="705.7"
   x2="211.4"
   y2="686.2"
   id="line22777" />
	<line
   class="st0"
   x1="211.4"
   y1="705.7"
   x2="211.4"
   y2="686.2"
   id="line22779" />
	<line
   class="st0"
   x1="211.4"
   y1="686.2"
   x2="219.9"
   y2="686.2"
   id="line22781" />
	<line
   class="st0"
   x1="219.9"
   y1="686.2"
   x2="219.9"
   y2="646.5"
   id="line22783" />
	<line
   class="st0"
   x1="219.9"
   y1="646.5"
   x2="296.4"
   y2="646.5"
   id="line22785" />
	<line
   class="st0"
   x1="296.4"
   y1="646.5"
   x2="296.4"
   y2="638"
   id="line22787" />
	<line
   class="st0"
   x1="296.4"
   y1="638"
   x2="438.2"
   y2="638"
   id="line22789" />
	<line
   class="st0"
   x1="219.9"
   y1="646.5"
   x2="296.4"
   y2="646.5"
   id="line22791" />
	<polyline
   class="st0"
   points="836.7,646.5 836.7,646.5 844.1,646.5 911.5,646.5  "
   id="polyline22793" />
	<polyline
   class="st0"
   points="438.2,638 438.2,646.5 683.6,646.5 695,646.5  "
   id="polyline22795" />
	<line
   class="st0"
   x1="695"
   y1="646.5"
   x2="695"
   y2="638"
   id="line22797" />
	<line
   class="st0"
   x1="836.7"
   y1="638"
   x2="836.7"
   y2="646.5"
   id="line22799" />
	<line
   class="st0"
   x1="911.5"
   y1="646.5"
   x2="911.5"
   y2="662.4"
   id="line22801" />
	<line
   class="st0"
   x1="911.5"
   y1="646.5"
   x2="911.5"
   y2="662.4"
   id="line22803" />
	<line
   class="st0"
   x1="911.5"
   y1="662.4"
   x2="920"
   y2="662.4"
   id="line22805" />
	<line
   class="st0"
   x1="920"
   y1="662.4"
   x2="920"
   y2="679.4"
   id="line22807" />
	<line
   class="st0"
   x1="920"
   y1="679.4"
   x2="920"
   y2="662.4"
   id="line22809" />
	<line
   class="st0"
   x1="920"
   y1="679.4"
   x2="911.5"
   y2="679.4"
   id="line22811" />
	<line
   class="st0"
   x1="911.5"
   y1="679.4"
   x2="911.5"
   y2="723"
   id="line22813" />
	<line
   class="st0"
   x1="911.5"
   y1="679.4"
   x2="911.5"
   y2="723"
   id="line22815" />
	<line
   class="st0"
   x1="911.5"
   y1="723"
   x2="920"
   y2="723"
   id="line22817" />
	<line
   class="st0"
   x1="920"
   y1="723"
   x2="920"
   y2="740.3"
   id="line22819" />
	<line
   class="st0"
   x1="920"
   y1="723"
   x2="920"
   y2="740.3"
   id="line22821" />
	<line
   class="st0"
   x1="920"
   y1="740.3"
   x2="911.5"
   y2="740.3"
   id="line22823" />
	<line
   class="st0"
   x1="911.5"
   y1="740.3"
   x2="911.5"
   y2="785.4"
   id="line22825" />
	<line
   class="st0"
   x1="911.5"
   y1="740.3"
   x2="911.5"
   y2="785.4"
   id="line22827" />
	<line
   class="st0"
   x1="911.5"
   y1="785.4"
   x2="920"
   y2="785.4"
   id="line22829" />
	<line
   class="st0"
   x1="920"
   y1="785.4"
   x2="920"
   y2="802.7"
   id="line22831" />
	<line
   class="st0"
   x1="920"
   y1="802.7"
   x2="911.5"
   y2="802.7"
   id="line22833" />
	<line
   class="st0"
   x1="911.5"
   y1="802.7"
   x2="911.5"
   y2="816.6"
   id="line22835" />
	<line
   class="st0"
   x1="911.5"
   y1="816.6"
   x2="219.9"
   y2="816.6"
   id="line22837" />
	<line
   class="st0"
   x1="219.9"
   y1="816.6"
   x2="219.9"
   y2="802.4"
   id="line22839" />
	<line
   class="st0"
   x1="219.9"
   y1="802.4"
   x2="211.4"
   y2="802.4"
   id="line22841" />
	<line
   class="st0"
   x1="211.4"
   y1="802.4"
   x2="211.4"
   y2="785.4"
   id="line22843" />
	<line
   class="st0"
   x1="211.4"
   y1="785.4"
   x2="219.9"
   y2="785.4"
   id="line22845" />
	<line
   class="st0"
   x1="219.9"
   y1="785.4"
   x2="219.9"
   y2="754.2"
   id="line22847" />
	<line
   class="st0"
   x1="219.9"
   y1="754.2"
   x2="211.4"
   y2="754.2"
   id="line22849" />
	<line
   class="st0"
   x1="211.4"
   y1="754.2"
   x2="211.4"
   y2="737.2"
   id="line22851" />
	<line
   class="st0"
   x1="211.4"
   y1="737.2"
   x2="219.9"
   y2="737.2"
   id="line22853" />
	<line
   class="st0"
   x1="219.9"
   y1="737.2"
   x2="219.9"
   y2="705.7"
   id="line22855" />
</g>
<g
   id="g22982">
	<g
   id="LWPOLYLINE_1_">
		<polyline
   class="st0"
   points="199.2,280.2 207.7,280.2 207.7,351 199.2,351   "
   id="polyline22859" />
	</g>
	<g
   id="LINE_73_">
		<line
   class="st0"
   x1="29.1"
   y1="634.5"
   x2="29.1"
   y2="209.3"
   id="line22862" />
	</g>
	<g
   id="LINE_72_">
		<line
   class="st0"
   x1="159.5"
   y1="209.3"
   x2="199.2"
   y2="209.3"
   id="line22865" />
		<line
   class="st0"
   x1="108.5"
   y1="209.3"
   x2="140"
   y2="209.3"
   id="line22867" />
		<line
   class="st0"
   x1="60.3"
   y1="209.3"
   x2="91.5"
   y2="209.3"
   id="line22869" />
		<line
   class="st0"
   x1="29.1"
   y1="209.3"
   x2="43.3"
   y2="209.3"
   id="line22871" />
	</g>
	<g
   id="LINE_71_">
		<line
   class="st0"
   x1="199.2"
   y1="280.2"
   x2="199.2"
   y2="209.3"
   id="line22874" />
	</g>
	<g
   id="LINE_70_">
		<line
   class="st0"
   x1="207.7"
   y1="280.2"
   x2="199.2"
   y2="280.2"
   id="line22877" />
	</g>
	<g
   id="LINE_69_">
		<line
   class="st0"
   x1="199.2"
   y1="351"
   x2="199.2"
   y2="492.7"
   id="line22880" />
	</g>
	<g
   id="LINE_68_">
		<line
   class="st0"
   x1="199.2"
   y1="492.7"
   x2="207.7"
   y2="492.7"
   id="line22883" />
	</g>
	<g
   id="LINE_67_">
		<line
   class="st0"
   x1="207.7"
   y1="351"
   x2="199.2"
   y2="351"
   id="line22886" />
	</g>
	<g
   id="LINE_66_">
		<line
   class="st0"
   x1="199.2"
   y1="563.6"
   x2="199.2"
   y2="634.5"
   id="line22889" />
	</g>
	<g
   id="LINE_65_">
		<path
   class="st0"
   d="M199.2,634.5"
   id="path22892" />
	</g>
	<g
   id="LINE_64_">
		<line
   class="st0"
   x1="207.7"
   y1="492.7"
   x2="207.7"
   y2="563.6"
   id="line22895" />
	</g>
	<g
   id="LINE_63_">
		<line
   class="st0"
   x1="207.7"
   y1="563.6"
   x2="199.2"
   y2="563.6"
   id="line22898" />
	</g>
	<g
   id="LINE_62_">
		<line
   class="st0"
   x1="159.5"
   y1="626"
   x2="159.5"
   y2="634.5"
   id="line22901" />
	</g>
	<g
   id="LINE_61_">
		<path
   class="st0"
   d="M140,634.5"
   id="path22904" />
		<path
   class="st0"
   d="M159.5,634.5"
   id="path22906" />
	</g>
	<g
   id="LINE_60_">
		<line
   class="st0"
   x1="140"
   y1="634.5"
   x2="140"
   y2="626"
   id="line22909" />
	</g>
	<g
   id="LINE_59_">
		<line
   class="st0"
   x1="140"
   y1="626"
   x2="159.5"
   y2="626"
   id="line22912" />
	</g>
	<g
   id="LINE_58_">
		<line
   class="st0"
   x1="108.5"
   y1="626"
   x2="108.5"
   y2="634.5"
   id="line22915" />
	</g>
	<g
   id="LINE_57_">
		<path
   class="st0"
   d="M91.5,634.5"
   id="path22918" />
		<path
   class="st0"
   d="M108.5,634.5"
   id="path22920" />
	</g>
	<g
   id="LINE_56_">
		<line
   class="st0"
   x1="91.5"
   y1="634.5"
   x2="91.5"
   y2="626"
   id="line22923" />
	</g>
	<g
   id="LINE_55_">
		<line
   class="st0"
   x1="91.5"
   y1="626"
   x2="108.5"
   y2="626"
   id="line22926" />
	</g>
	<g
   id="LINE_54_">
		<line
   class="st0"
   x1="60.3"
   y1="626"
   x2="60.3"
   y2="634.5"
   id="line22929" />
	</g>
	<g
   id="LINE_53_">
		<path
   class="st0"
   d="M43.3,634.5"
   id="path22932" />
		<path
   class="st0"
   d="M60.3,634.5"
   id="path22934" />
	</g>
	<g
   id="LINE_52_">
		<line
   class="st0"
   x1="43.3"
   y1="634.5"
   x2="43.3"
   y2="626"
   id="line22937" />
	</g>
	<g
   id="LINE_51_">
		<line
   class="st0"
   x1="43.3"
   y1="626"
   x2="60.3"
   y2="626"
   id="line22940" />
	</g>
	<g
   id="LINE_50_">
		<line
   class="st0"
   x1="43.3"
   y1="217.8"
   x2="43.3"
   y2="209.3"
   id="line22943" />
	</g>
	<g
   id="LINE_49_">
		<line
   class="st0"
   x1="60.3"
   y1="209.3"
   x2="60.3"
   y2="217.8"
   id="line22946" />
	</g>
	<g
   id="LINE_48_">
		<line
   class="st0"
   x1="60.3"
   y1="217.8"
   x2="43.3"
   y2="217.8"
   id="line22949" />
	</g>
	<g
   id="LINE_47_">
		<line
   class="st0"
   x1="91.5"
   y1="217.8"
   x2="91.5"
   y2="209.3"
   id="line22952" />
	</g>
	<g
   id="LINE_46_">
		<line
   class="st0"
   x1="108.5"
   y1="209.3"
   x2="108.5"
   y2="217.8"
   id="line22955" />
	</g>
	<g
   id="LINE_45_">
		<line
   class="st0"
   x1="108.5"
   y1="217.8"
   x2="91.5"
   y2="217.8"
   id="line22958" />
	</g>
	<g
   id="LINE_44_">
		<line
   class="st0"
   x1="140"
   y1="217.8"
   x2="140"
   y2="209.3"
   id="line22961" />
	</g>
	<g
   id="LINE_43_">
		<line
   class="st0"
   x1="159.5"
   y1="209.3"
   x2="159.5"
   y2="217.8"
   id="line22964" />
	</g>
	<g
   id="LINE_42_">
		<line
   class="st0"
   x1="159.5"
   y1="217.8"
   x2="140"
   y2="217.8"
   id="line22967" />
	</g>
	<g
   id="LINE_41_">
		<line
   class="st0"
   x1="199.2"
   y1="634.5"
   x2="159.5"
   y2="634.5"
   id="line22970" />
	</g>
	<g
   id="LINE_40_">
		<line
   class="st0"
   x1="140"
   y1="634.5"
   x2="108.5"
   y2="634.5"
   id="line22973" />
	</g>
	<g
   id="LINE_39_">
		<line
   class="st0"
   x1="91.5"
   y1="634.5"
   x2="60.3"
   y2="634.5"
   id="line22976" />
	</g>
	<g
   id="LINE_38_">
		<line
   class="st0"
   x1="43.3"
   y1="634.5"
   x2="29.1"
   y2="634.5"
   id="line22979" />
	</g>
</g>
<path
   class="st0"
   d="m 531.7,367.74409 c 0,-18.7 15.3,-34 34,-34 18.7,0 34,15.3 34,34 0,18.7 -15.3,34 -34,34 -18.7,0 -34,-15.3 -34,-34 z"
   id="path22984" />
<path
   class="st0"
   d="M211.4,209.3"
   id="path22986" />
<path
   class="st0"
   d="M211.4,634.5"
   id="path22988" />
<path
   class="st0"
   d="M920,634.5"
   id="path22990" />
<path
   class="st0"
   d="M920,209.3"
   id="path22992" />
<line
   class="st0"
   x1="294.7"
   y1="634.5"
   x2="211.4"
   y2="634.5"
   id="line22994" />
<line
   class="st0"
   x1="693.3"
   y1="634.5"
   x2="436.5"
   y2="634.5"
   id="line22996" />
<line
   class="st0"
   x1="920"
   y1="634.5"
   x2="835"
   y2="634.5"
   id="line22998" />
<line
   class="st0"
   x1="835"
   y1="209.3"
   x2="920"
   y2="209.3"
   id="line23000" />
<line
   class="st0"
   x1="436.5"
   y1="209.3"
   x2="693.3"
   y2="209.3"
   id="line23002" />
<line
   class="st0"
   x1="211.4"
   y1="209.3"
   x2="294.7"
   y2="209.3"
   id="line23004" />
<line
   class="st0"
   x1="693.3"
   y1="634.5"
   x2="693.3"
   y2="626"
   id="line23006" />
<line
   class="st0"
   x1="693.3"
   y1="626"
   x2="835"
   y2="626"
   id="line23008" />
<line
   class="st0"
   x1="835"
   y1="626"
   x2="835"
   y2="634.5"
   id="line23010" />
<line
   class="st0"
   x1="920"
   y1="563.6"
   x2="911.5"
   y2="563.6"
   id="line23012" />
<line
   class="st0"
   x1="911.5"
   y1="563.6"
   x2="911.5"
   y2="492.7"
   id="line23014" />
<line
   class="st0"
   x1="911.5"
   y1="492.7"
   x2="920"
   y2="492.7"
   id="line23016" />
<line
   class="st0"
   x1="920"
   y1="563.6"
   x2="920"
   y2="563.6"
   id="line23018" />
<line
   class="st0"
   x1="920"
   y1="492.7"
   x2="920"
   y2="492.7"
   id="line23020" />
<line
   class="st0"
   x1="920"
   y1="351"
   x2="911.5"
   y2="351"
   id="line23022" />
<line
   class="st0"
   x1="911.5"
   y1="351"
   x2="911.5"
   y2="280.2"
   id="line23024" />
<line
   class="st0"
   x1="911.5"
   y1="280.2"
   x2="920"
   y2="280.2"
   id="line23026" />
<line
   class="st0"
   x1="835"
   y1="217.8"
   x2="693.3"
   y2="217.8"
   id="line23028" />
<line
   class="st0"
   x1="693.3"
   y1="217.8"
   x2="693.3"
   y2="209.3"
   id="line23030" />
<line
   class="st0"
   x1="835"
   y1="209.3"
   x2="835"
   y2="217.8"
   id="line23032" />
<line
   class="st0"
   x1="436.5"
   y1="217.8"
   x2="294.7"
   y2="217.8"
   id="line23034" />
<line
   class="st0"
   x1="294.7"
   y1="217.8"
   x2="294.7"
   y2="209.3"
   id="line23036" />
<line
   class="st0"
   x1="436.5"
   y1="209.3"
   x2="436.5"
   y2="217.8"
   id="line23038" />
<line
   class="st0"
   x1="219.9"
   y1="351"
   x2="211.4"
   y2="351"
   id="line23040" />
<line
   class="st0"
   x1="211.4"
   y1="280.2"
   x2="219.9"
   y2="280.2"
   id="line23042" />
<line
   class="st0"
   x1="219.9"
   y1="280.2"
   x2="219.9"
   y2="351"
   id="line23044" />
<line
   class="st0"
   x1="219.9"
   y1="563.6"
   x2="211.4"
   y2="563.6"
   id="line23046" />
<line
   class="st0"
   x1="211.4"
   y1="492.7"
   x2="211.4"
   y2="492.7"
   id="line23048" />
<line
   class="st0"
   x1="211.4"
   y1="563.6"
   x2="211.4"
   y2="563.6"
   id="line23050" />
<line
   class="st0"
   x1="211.4"
   y1="492.7"
   x2="219.9"
   y2="492.7"
   id="line23052" />
<line
   class="st0"
   x1="219.9"
   y1="492.7"
   x2="219.9"
   y2="563.6"
   id="line23054" />
<line
   class="st0"
   x1="294.7"
   y1="634.5"
   x2="294.7"
   y2="626"
   id="line23056" />
<line
   class="st0"
   x1="294.7"
   y1="626"
   x2="436.5"
   y2="626"
   id="line23058" />
<line
   class="st0"
   x1="436.5"
   y1="626"
   x2="436.5"
   y2="634.5"
   id="line23060" />
<line
   class="st0"
   x1="920"
   y1="351"
   x2="920"
   y2="492.7"
   id="line23062" />
<line
   class="st0"
   x1="920"
   y1="209.3"
   x2="920"
   y2="280.2"
   id="line23064" />
<line
   class="st0"
   x1="920"
   y1="563.6"
   x2="920"
   y2="634.5"
   id="line23066" />
<line
   class="st0"
   x1="211.4"
   y1="634.5"
   x2="211.4"
   y2="563.6"
   id="line23068" />
<line
   class="st0"
   x1="211.4"
   y1="280.2"
   x2="211.4"
   y2="209.3"
   id="line23070" />
<line
   class="st0"
   x1="211.4"
   y1="492.7"
   x2="211.4"
   y2="351"
   id="line23072" />
<path
   class="st0"
   d="m 529.96082,520.14232 c 0,-18.7 15.3,-34 34,-34 18.7,0 34,15.3 34,34 0,18.7 -15.3,34 -34,34 -18.7,0 -34,-15.3 -34,-34 z"
   id="path23074-7"
   style="fill:none;stroke:#010101;stroke-width:0.7087;stroke-linecap:round;stroke-linejoin:round;stroke-miterlimit:10" /><path
   class="st0"
   d="m 715.16273,367.74409 c 0,-18.7 15.3,-34 34,-34 18.7,0 34,15.3 34,34 0,18.7 -15.3,34 -34,34 -18.7,0 -34,-15.3 -34,-34 z"
   id="path23074-0"
   style="fill:none;stroke:#010101;stroke-width:0.7087;stroke-linecap:round;stroke-linejoin:round;stroke-miterlimit:10" /><path
   class="st0"
   d="m 355.16273,367.74409 c 0,-18.7 15.3,-34 34,-34 18.7,0 34,15.3 34,34 0,18.7 -15.3,34 -34,34 -18.7,0 -34,-15.3 -34,-34 z"
   id="path23074-3"
   style="fill:none;stroke:#010101;stroke-width:0.7087;stroke-linecap:round;stroke-linejoin:round;stroke-miterlimit:10" />
<g
   id="g23078">
	<polygon
   class="st1"
   points="941.4,634.4 957.2,634.4 957.2,625.9 974.4,625.9 974.4,634.4 1017.9,634.4 1017.9,625.9    1035.1,625.9 1035.1,634.4 1080.3,634.4 1080.3,625.9 1097.6,625.9 1097.6,634.4 1111.5,634.4 1111.5,209.3 1097.6,209.3    1097.6,217.8 1080.3,217.8 1080.3,209.3 1035.1,209.3 1035.1,217.8 1017.9,217.8 1017.9,209.3 974.4,209.3 974.4,217.8    957.2,217.8 957.2,209.3 941.4,209.3 941.4,280.1 932.9,280.1 932.9,351 941.4,351 941.4,492.7 932.9,492.7 932.9,563.6    941.4,563.6  "
   id="polygon23076" />
</g>
<text
   xml:space="preserve"
   style="font-style:normal;font-weight:normal;font-size:40px;line-height:1.25;font-family:sans-serif;fill:#000000;fill-opacity:1;stroke:none"
   x="259.88861"
   y="288.09683"
   id="text24029"><tspan
     sodipodi:role="line"
     id="tspan24027"
     x="259.88861"
     y="288.09683"
     style="font-style:normal;font-variant:normal;font-weight:normal;font-stretch:normal;font-size:48px;font-family:'Blade Runner Movie Font';-inkscape-font-specification:'Blade Runner Movie Font, Normal';font-variant-ligatures:normal;font-variant-caps:normal;font-variant-numeric:normal;font-variant-east-asian:normal">undroid shell game</tspan></text><text
   xml:space="preserve"
   style="font-style:normal;font-weight:normal;font-size:40px;line-height:1.25;font-family:sans-serif;fill:#000000;fill-opacity:1;stroke:none"
   x="370.6001"
   y="451.56311"
   id="text26569"><tspan
     sodipodi:role="line"
     id="tspan26567"
     x="370.6001"
     y="451.56311"
     style="font-style:normal;font-variant:normal;font-weight:normal;font-stretch:normal;font-size:40px;font-family:'Blade Runner Movie Font';-inkscape-font-specification:'Blade Runner Movie Font, Normal';font-variant-ligatures:normal;font-variant-caps:normal;font-variant-numeric:normal;font-variant-east-asian:normal">a</tspan></text><text
   xml:space="preserve"
   style="font-style:normal;font-weight:normal;font-size:40px;line-height:1.25;font-family:sans-serif;fill:#000000;fill-opacity:1;stroke:none"
   x="547.55432"
   y="451.56311"
   id="text26569-0"><tspan
     sodipodi:role="line"
     id="tspan26567-9"
     x="547.55432"
     y="451.56311"
     style="font-style:normal;font-variant:normal;font-weight:normal;font-stretch:normal;font-size:40px;font-family:'Blade Runner Movie Font';-inkscape-font-specification:'Blade Runner Movie Font, Normal';font-variant-ligatures:normal;font-variant-caps:normal;font-variant-numeric:normal;font-variant-east-asian:normal">b</tspan></text><text
   xml:space="preserve"
   style="font-style:normal;font-weight:normal;font-size:40px;line-height:1.25;font-family:sans-serif;fill:#000000;fill-opacity:1;stroke:none"
   x="732.84045"
   y="451.82465"
   id="text26569-1"><tspan
     sodipodi:role="line"
     id="tspan26567-1"
     x="732.84045"
     y="451.82465"
     style="font-style:normal;font-variant:normal;font-weight:normal;font-stretch:normal;font-size:40px;font-family:'Blade Runner Movie Font';-inkscape-font-specification:'Blade Runner Movie Font, Normal';font-variant-ligatures:normal;font-variant-caps:normal;font-variant-numeric:normal;font-variant-east-asian:normal">c</tspan></text><text
   xml:space="preserve"
   style="font-style:normal;font-weight:normal;font-size:40px;line-height:1.25;font-family:sans-serif;fill:#000000;fill-opacity:1;stroke:none"
   x="486.55408"
   y="601.26831"
   id="text29529"><tspan
     sodipodi:role="line"
     id="tspan29527"
     x="486.55408"
     y="601.26831"
     style="font-style:normal;font-variant:normal;font-weight:normal;font-stretch:normal;font-size:40px;font-family:'Blade Runner Movie Font';-inkscape-font-specification:'Blade Runner Movie Font, Normal';font-variant-ligatures:normal;font-variant-caps:normal;font-variant-numeric:normal;font-variant-east-asian:normal">start</tspan></text></svg>
