<?xml version="1.0" encoding="UTF-8" standalone="no"?>
<!-- Generator: Adobe Illustrator 22.1.0, SVG Export Plug-In . SVG Version: 6.00 Build 0)  -->

<svg
   version="1.1"
   id="Layer_1"
   x="0px"
   y="0px"
   width="1440px"
   height="864px"
   viewBox="0 0 1440 864"
   style="enable-background:new 0 0 1440 864;"
   xml:space="preserve"
   sodipodi:docname="shell-game-button-box.svg"
   inkscape:version="1.1.2 (0a00cf5339, 2022-02-04)"
   xmlns:inkscape="http://www.inkscape.org/namespaces/inkscape"
   xmlns:sodipodi="http://sodipodi.sourceforge.net/DTD/sodipodi-0.dtd"
   xmlns="http://www.w3.org/2000/svg"
   xmlns:svg="http://www.w3.org/2000/svg"><defs
   id="defs23083" /><sodipodi:namedview
   id="namedview23081"
   pagecolor="#ffffff"
   bordercolor="#666666"
   borderopacity="1.0"
   inkscape:pageshadow="2"
   inkscape:pageopacity="0.0"
   inkscape:pagecheckerboard="0"
   showgrid="false"
   inkscape:zoom="0.83217593"
   inkscape:cx="640.48957"
   inkscape:cy="467.44924"
   inkscape:window-width="1916"
   inkscape:window-height="1161"
   inkscape:window-x="0"
   inkscape:window-y="18"
   inkscape:window-maximized="1"
   inkscape:current-layer="Layer_1" />
<style
   type="text/css"
   id="style22746">
	.st0{fill:none;stroke:#010101;stroke-width:0.7087;stroke-linecap:round;stroke-linejoin:round;stroke-miterlimit:10;}
	.st1{fill:none;stroke:#000000;stroke-width:0.7087;stroke-linecap:round;stroke-linejoin:round;stroke-miterlimit:10;}
</style>
<g
   id="g22771">
	<path
   class="st0"
   d="M828.1,256.8"
   id="path22748" />
	<polyline
   class="st0"
   points="295.2,203.8 221.2,203.8 221.2,164.1 212.7,164.1 212.7,144.6 221.2,144.6 221.2,113.1 212.7,113.1    212.7,96.1 221.2,96.1 221.2,64.9 212.7,64.9 212.7,47.9 221.2,47.9 221.2,33.7 912.9,33.7 912.9,47.6 921.4,47.6 921.4,64.9    912.9,64.9 912.9,110 921.4,110 921.4,127.3 912.9,127.3 912.9,170.9 921.4,170.9 921.4,187.9 912.9,187.9 912.9,203.8  "
   id="polyline22750" />
	<polyline
   class="st0"
   points="693.7,203.8 439.8,203.8 436.9,203.8  "
   id="polyline22752" />
	<path
   class="st0"
   d="M403.2,73.4c0,17.6-14.5,32-32,32c-17.6,0-32-14.5-32-32c0-17.6,14.5-32,32-32S403.2,55.8,403.2,73.4   L403.2,73.4z"
   id="path22754" />
	<g
   id="LINE_37_">
		<polyline
   class="st0"
   points="693.7,212.3 835.5,212.3 835.5,203.8 912.9,203.8   "
   id="polyline22756" />
	</g>
	<line
   class="st0"
   x1="693.7"
   y1="212.3"
   x2="693.7"
   y2="203.8"
   id="line22759" />
	<line
   class="st0"
   x1="436.9"
   y1="212.3"
   x2="436.9"
   y2="203.8"
   id="line22761" />
	<line
   class="st0"
   x1="436.9"
   y1="212.3"
   x2="295.2"
   y2="212.3"
   id="line22763" />
	<line
   class="st0"
   x1="295.2"
   y1="212.3"
   x2="295.2"
   y2="203.8"
   id="line22765" />
	<path
   class="st0"
   d="M907.8,203.8"
   id="path22767" />
	<path
   class="st0"
   d="M907.8,203.8"
   id="path22769" />
</g>
<g
   id="g22857">
	<polyline
   class="st0"
   points="695,646.5 695,638 836.7,638 836.7,646.5  "
   id="polyline22773" />
	<line
   class="st0"
   x1="219.9"
   y1="705.7"
   x2="211.4"
   y2="705.7"
   id="line22775" />
	<line
   class="st0"
   x1="211.4"
   y1="705.7"
   x2="211.4"
   y2="686.2"
   id="line22777" />
	<line
   class="st0"
   x1="211.4"
   y1="705.7"
   x2="211.4"
   y2="686.2"
   id="line22779" />
	<line
   class="st0"
   x1="211.4"
   y1="686.2"
   x2="219.9"
   y2="686.2"
   id="line22781" />
	<line
   class="st0"
   x1="219.9"
   y1="686.2"
   x2="219.9"
   y2="646.5"
   id="line22783" />
	<line
   class="st0"
   x1="219.9"
   y1="646.5"
   x2="296.4"
   y2="646.5"
   id="line22785" />
	<line
   class="st0"
   x1="296.4"
   y1="646.5"
   x2="296.4"
   y2="638"
   id="line22787" />
	<line
   class="st0"
   x1="296.4"
   y1="638"
   x2="438.2"
   y2="638"
   id="line22789" />
	<line
   class="st0"
   x1="219.9"
   y1="646.5"
   x2="296.4"
   y2="646.5"
   id="line22791" />
	<polyline
   class="st0"
   points="836.7,646.5 836.7,646.5 844.1,646.5 911.5,646.5  "
   id="polyline22793" />
	<polyline
   class="st0"
   points="438.2,638 438.2,646.5 683.6,646.5 695,646.5  "
   id="polyline22795" />
	<line
   class="st0"
   x1="695"
   y1="646.5"
   x2="695"
   y2="638"
   id="line22797" />
	<line
   class="st0"
   x1="836.7"
   y1="638"
   x2="836.7"
   y2="646.5"
   id="line22799" />
	<line
   class="st0"
   x1="911.5"
   y1="646.5"
   x2="911.5"
   y2="662.4"
   id="line22801" />
	<line
   class="st0"
   x1="911.5"
   y1="646.5"
   x2="911.5"
   y2="662.4"
   id="line22803" />
	<line
   class="st0"
   x1="911.5"
   y1="662.4"
   x2="920"
   y2="662.4"
   id="line22805" />
	<line
   class="st0"
   x1="920"
   y1="662.4"
   x2="920"
   y2="679.4"
   id="line22807" />
	<line
   class="st0"
   x1="920"
   y1="679.4"
   x2="920"
   y2="662.4"
   id="line22809" />
	<line
   class="st0"
   x1="920"
   y1="679.4"
   x2="911.5"
   y2="679.4"
   id="line22811" />
	<line
   class="st0"
   x1="911.5"
   y1="679.4"
   x2="911.5"
   y2="723"
   id="line22813" />
	<line
   class="st0"
   x1="911.5"
   y1="679.4"
   x2="911.5"
   y2="723"
   id="line22815" />
	<line
   class="st0"
   x1="911.5"
   y1="723"
   x2="920"
   y2="723"
   id="line22817" />
	<line
   class="st0"
   x1="920"
   y1="723"
   x2="920"
   y2="740.3"
   id="line22819" />
	<line
   class="st0"
   x1="920"
   y1="723"
   x2="920"
   y2="740.3"
   id="line22821" />
	<line
   class="st0"
   x1="920"
   y1="740.3"
   x2="911.5"
   y2="740.3"
   id="line22823" />
	<line
   class="st0"
   x1="911.5"
   y1="740.3"
   x2="911.5"
   y2="785.4"
   id="line22825" />
	<line
   class="st0"
   x1="911.5"
   y1="740.3"
   x2="911.5"
   y2="785.4"
   id="line22827" />
	<line
   class="st0"
   x1="911.5"
   y1="785.4"
   x2="920"
   y2="785.4"
   id="line22829" />
	<line
   class="st0"
   x1="920"
   y1="785.4"
   x2="920"
   y2="802.7"
   id="line22831" />
	<line
   class="st0"
   x1="920"
   y1="802.7"
   x2="911.5"
   y2="802.7"
   id="line22833" />
	<line
   class="st0"
   x1="911.5"
   y1="802.7"
   x2="911.5"
   y2="816.6"
   id="line22835" />
	<line
   class="st0"
   x1="911.5"
   y1="816.6"
   x2="219.9"
   y2="816.6"
   id="line22837" />
	<line
   class="st0"
   x1="219.9"
   y1="816.6"
   x2="219.9"
   y2="802.4"
   id="line22839" />
	<line
   class="st0"
   x1="219.9"
   y1="802.4"
   x2="211.4"
   y2="802.4"
   id="line22841" />
	<line
   class="st0"
   x1="211.4"
   y1="802.4"
   x2="211.4"
   y2="785.4"
   id="line22843" />
	<line
   class="st0"
   x1="211.4"
   y1="785.4"
   x2="219.9"
   y2="785.4"
   id="line22845" />
	<line
   class="st0"
   x1="219.9"
   y1="785.4"
   x2="219.9"
   y2="754.2"
   id="line22847" />
	<line
   class="st0"
   x1="219.9"
   y1="754.2"
   x2="211.4"
   y2="754.2"
   id="line22849" />
	<line
   class="st0"
   x1="211.4"
   y1="754.2"
   x2="211.4"
   y2="737.2"
   id="line22851" />
	<line
   class="st0"
   x1="211.4"
   y1="737.2"
   x2="219.9"
   y2="737.2"
   id="line22853" />
	<line
   class="st0"
   x1="219.9"
   y1="737.2"
   x2="219.9"
   y2="705.7"
   id="line22855" />
</g>
<g
   id="g22982">
	<g
   id="LWPOLYLINE_1_">
		<polyline
   class="st0"
   points="199.2,280.2 207.7,280.2 207.7,351 199.2,351   "
   id="polyline22859" />
	</g>
	<g
   id="LINE_73_">
		<line
   class="st0"
   x1="29.1"
   y1="634.5"
   x2="29.1"
   y2="209.3"
   id="line22862" />
	</g>
	<g
   id="LINE_72_">
		<line
   class="st0"
   x1="159.5"
   y1="209.3"
   x2="199.2"
   y2="209.3"
   id="line22865" />
		<line
   class="st0"
   x1="108.5"
   y1="209.3"
   x2="140"
   y2="209.3"
   id="line22867" />
		<line
   class="st0"
   x1="60.3"
   y1="209.3"
   x2="91.5"
   y2="209.3"
   id="line22869" />
		<line
   class="st0"
   x1="29.1"
   y1="209.3"
   x2="43.3"
   y2="209.3"
   id="line22871" />
	</g>
	<g
   id="LINE_71_">
		<line
   class="st0"
   x1="199.2"
   y1="280.2"
   x2="199.2"
   y2="209.3"
   id="line22874" />
	</g>
	<g
   id="LINE_70_">
		<line
   class="st0"
   x1="207.7"
   y1="280.2"
   x2="199.2"
   y2="280.2"
   id="line22877" />
	</g>
	<g
   id="LINE_69_">
		<line
   class="st0"
   x1="199.2"
   y1="351"
   x2="199.2"
   y2="492.7"
   id="line22880" />
	</g>
	<g
   id="LINE_68_">
		<line
   class="st0"
   x1="199.2"
   y1="492.7"
   x2="207.7"
   y2="492.7"
   id="line22883" />
	</g>
	<g
   id="LINE_67_">
		<line
   class="st0"
   x1="207.7"
   y1="351"
   x2="199.2"
   y2="351"
   id="line22886" />
	</g>
	<g
   id="LINE_66_">
		<line
   class="st0"
   x1="199.2"
   y1="563.6"
   x2="199.2"
   y2="634.5"
   id="line22889" />
	</g>
	<g
   id="LINE_65_">
		<path
   class="st0"
   d="M199.2,634.5"
   id="path22892" />
	</g>
	<g
   id="LINE_64_">
		<line
   class="st0"
   x1="207.7"
   y1="492.7"
   x2="207.7"
   y2="563.6"
   id="line22895" />
	</g>
	<g
   id="LINE_63_">
		<line
   class="st0"
   x1="207.7"
   y1="563.6"
   x2="199.2"
   y2="563.6"
   id="line22898" />
	</g>
	<g
   id="LINE_62_">
		<line
   class="st0"
   x1="159.5"
   y1="626"
   x2="159.5"
   y2="634.5"
   id="line22901" />
	</g>
	<g
   id="LINE_61_">
		<path
   class="st0"
   d="M140,634.5"
   id="path22904" />
		<path
   class="st0"
   d="M159.5,634.5"
   id="path22906" />
	</g>
	<g
   id="LINE_60_">
		<line
   class="st0"
   x1="140"
   y1="634.5"
   x2="140"
   y2="626"
   id="line22909" />
	</g>
	<g
   id="LINE_59_">
		<line
   class="st0"
   x1="140"
   y1="626"
   x2="159.5"
   y2="626"
   id="line22912" />
	</g>
	<g
   id="LINE_58_">
		<line
   class="st0"
   x1="108.5"
   y1="626"
   x2="108.5"
   y2="634.5"
   id="line22915" />
	</g>
	<g
   id="LINE_57_">
		<path
   class="st0"
   d="M91.5,634.5"
   id="path22918" />
		<path
   class="st0"
   d="M108.5,634.5"
   id="path22920" />
	</g>
	<g
   id="LINE_56_">
		<line
   class="st0"
   x1="91.5"
   y1="634.5"
   x2="91.5"
   y2="626"
   id="line22923" />
	</g>
	<g
   id="LINE_55_">
		<line
   class="st0"
   x1="91.5"
   y1="626"
   x2="108.5"
   y2="626"
   id="line22926" />
	</g>
	<g
   id="LINE_54_">
		<line
   class="st0"
   x1="60.3"
   y1="626"
   x2="60.3"
   y2="634.5"
   id="line22929" />
	</g>
	<g
   id="LINE_53_">
		<path
   class="st0"
   d="M43.3,634.5"
   id="path22932" />
		<path
   class="st0"
   d="M60.3,634.5"
   id="path22934" />
	</g>
	<g
   id="LINE_52_">
		<line
   class="st0"
   x1="43.3"
   y1="634.5"
   x2="43.3"
   y2="626"
   id="line22937" />
	</g>
	<g
   id="LINE_51_">
		<line
   class="st0"
   x1="43.3"
   y1="626"
   x2="60.3"
   y2="626"
   id="line22940" />
	</g>
	<g
   id="LINE_50_">
		<line
   class="st0"
   x1="43.3"
   y1="217.8"
   x2="43.3"
   y2="209.3"
   id="line22943" />
	</g>
	<g
   id="LINE_49_">
		<line
   class="st0"
   x1="60.3"
   y1="209.3"
   x2="60.3"
   y2="217.8"
   id="line22946" />
	</g>
	<g
   id="LINE_48_">
		<line
   class="st0"
   x1="60.3"
   y1="217.8"
   x2="43.3"
   y2="217.8"
   id="line22949" />
	</g>
	<g
   id="LINE_47_">
		<line
   class="st0"
   x1="91.5"
   y1="217.8"
   x2="91.5"
   y2="209.3"
   id="line22952" />
	</g>
	<g
   id="LINE_46_">
		<line
   class="st0"
   x1="108.5"
   y1="209.3"
   x2="108.5"
   y2="217.8"
   id="line22955" />
	</g>
	<g
   id="LINE_45_">
		<line
   class="st0"
   x1="108.5"
   y1="217.8"
   x2="91.5"
   y2="217.8"
   id="line22958" />
	</g>
	<g
   id="LINE_44_">
		<line
   class="st0"
   x1="140"
   y1="217.8"
   x2="140"
   y2="209.3"
   id="line22961" />
	</g>
	<g
   id="LINE_43_">
		<line
   class="st0"
   x1="159.5"
   y1="209.3"
   x2="159.5"
   y2="217.8"
   id="line22964" />
	</g>
	<g
   id="LINE_42_">
		<line
   class="st0"
   x1="159.5"
   y1="217.8"
   x2="140"
   y2="217.8"
   id="line22967" />
	</g>
	<g
   id="LINE_41_">
		<line
   class="st0"
   x1="199.2"
   y1="634.5"
   x2="159.5"
   y2="634.5"
   id="line22970" />
	</g>
	<g
   id="LINE_40_">
		<line
   class="st0"
   x1="140"
   y1="634.5"
   x2="108.5"
   y2="634.5"
   id="line22973" />
	</g>
	<g
   id="LINE_39_">
		<line
   class="st0"
   x1="91.5"
   y1="634.5"
   x2="60.3"
   y2="634.5"
   id="line22976" />
	</g>
	<g
   id="LINE_38_">
		<line
   class="st0"
   x1="43.3"
   y1="634.5"
   x2="29.1"
   y2="634.5"
   id="line22979" />
	</g>
</g>
<path
   class="st0"
   d="m 531.7,367.74409 c 0,-18.7 15.3,-34 34,-34 18.7,0 34,15.3 34,34 0,18.7 -15.3,34 -34,34 -18.7,0 -34,-15.3 -34,-34 z"
   id="path22984" />
<path
   class="st0"
   d="M211.4,209.3"
   id="path22986" />
<path
   class="st0"
   d="M211.4,634.5"
   id="path22988" />
<path
   class="st0"
   d="M920,634.5"
   id="path22990" />
<path
   class="st0"
   d="M920,209.3"
   id="path22992" />
<line
   class="st0"
   x1="294.7"
   y1="634.5"
   x2="211.4"
   y2="634.5"
   id="line22994" />
<line
   class="st0"
   x1="693.3"
   y1="634.5"
   x2="436.5"
   y2="634.5"
   id="line22996" />
<line
   class="st0"
   x1="920"
   y1="634.5"
   x2="835"
   y2="634.5"
   id="line22998" />
<line
   class="st0"
   x1="835"
   y1="209.3"
   x2="920"
   y2="209.3"
   id="line23000" />
<line
   class="st0"
   x1="436.5"
   y1="209.3"
   x2="693.3"
   y2="209.3"
   id="line23002" />
<line
   class="st0"
   x1="211.4"
   y1="209.3"
   x2="294.7"
   y2="209.3"
   id="line23004" />
<line
   class="st0"
   x1="693.3"
   y1="634.5"
   x2="693.3"
   y2="626"
   id="line23006" />
<line
   class="st0"
   x1="693.3"
   y1="626"
   x2="835"
   y2="626"
   id="line23008" />
<line
   class="st0"
   x1="835"
   y1="626"
   x2="835"
   y2="634.5"
   id="line23010" />
<line
   class="st0"
   x1="920"
   y1="563.6"
   x2="911.5"
   y2="563.6"
   id="line23012" />
<line
   class="st0"
   x1="911.5"
   y1="563.6"
   x2="911.5"
   y2="492.7"
   id="line23014" />
<line
   class="st0"
   x1="911.5"
   y1="492.7"
   x2="920"
   y2="492.7"
   id="line23016" />
<line
   class="st0"
   x1="920"
   y1="563.6"
   x2="920"
   y2="563.6"
   id="line23018" />
<line
   class="st0"
   x1="920"
   y1="492.7"
   x2="920"
   y2="492.7"
   id="line23020" />
<line
   class="st0"
   x1="920"
   y1="351"
   x2="911.5"
   y2="351"
   id="line23022" />
<line
   class="st0"
   x1="911.5"
   y1="351"
   x2="911.5"
   y2="280.2"
   id="line23024" />
<line
   class="st0"
   x1="911.5"
   y1="280.2"
   x2="920"
   y2="280.2"
   id="line23026" />
<line
   class="st0"
   x1="835"
   y1="217.8"
   x2="693.3"
   y2="217.8"
   id="line23028" />
<line
   class="st0"
   x1="693.3"
   y1="217.8"
   x2="693.3"
   y2="209.3"
   id="line23030" />
<line
   class="st0"
   x1="835"
   y1="209.3"
   x2="835"
   y2="217.8"
   id="line23032" />
<line
   class="st0"
   x1="436.5"
   y1="217.8"
   x2="294.7"
   y2="217.8"
   id="line23034" />
<line
   class="st0"
   x1="294.7"
   y1="217.8"
   x2="294.7"
   y2="209.3"
   id="line23036" />
<line
   class="st0"
   x1="436.5"
   y1="209.3"
   x2="436.5"
   y2="217.8"
   id="line23038" />
<line
   class="st0"
   x1="219.9"
   y1="351"
   x2="211.4"
   y2="351"
   id="line23040" />
<line
   class="st0"
   x1="211.4"
   y1="280.2"
   x2="219.9"
   y2="280.2"
   id="line23042" />
<line
   class="st0"
   x1="219.9"
   y1="280.2"
   x2="219.9"
   y2="351"
   id="line23044" />
<line
   class="st0"
   x1="219.9"
   y1="563.6"
   x2="211.4"
   y2="563.6"
   id="line23046" />
<line
   class="st0"
   x1="211.4"
   y1="492.7"
   x2="211.4"
   y2="492.7"
   id="line23048" />
<line
   class="st0"
   x1="211.4"
   y1="563.6"
   x2="211.4"
   y2="563.6"
   id="line23050" />
<line
   class="st0"
   x1="211.4"
   y1="492.7"
   x2="219.9"
   y2="492.7"
   id="line23052" />
<line
   class="st0"
   x1="219.9"
   y1="492.7"
   x2="219.9"
   y2="563.6"
   id="line23054" />
<line
   class="st0"
   x1="294.7"
   y1="634.5"
   x2="294.7"
   y2="626"
   id="line23056" />
<line
   class="st0"
   x1="294.7"
   y1="626"
   x2="436.5"
   y2="626"
   id="line23058" />
<line
   class="st0"
   x1="436.5"
   y1="626"
   x2="436.5"
   y2="634.5"
   id="line23060" />
<line
   class="st0"
   x1="920"
   y1="351"
   x2="920"
   y2="492.7"
   id="line23062" />
<line
   class="st0"
   x1="920"
   y1="209.3"
   x2="920"
   y2="280.2"
   id="line23064" />
<line
   class="st0"
   x1="920"
   y1="563.6"
   x2="920"
   y2="634.5"
   id="line23066" />
<line
   class="st0"
   x1="211.4"
   y1="634.5"
   x2="211.4"
   y2="563.6"
   id="line23068" />
<line
   class="st0"
   x1="211.4"
   y1="280.2"
   x2="211.4"
   y2="209.3"
   id="line23070" />
<line
   class="st0"
   x1="211.4"
   y1="492.7"
   x2="211.4"
   y2="351"
   id="line23072" />
<path
   class="st0"
   d="m 529.96082,520.14232 c 0,-18.7 15.3,-34 34,-34 18.7,0 34,15.3 34,34 0,18.7 -15.3,34 -34,34 -18.7,0 -34,-15.3 -34,-34 z"
   id="path23074-7"
   style="fill:none;stroke:#010101;stroke-width:0.7087;stroke-linecap:round;stroke-linejoin:round;stroke-miterlimit:10" /><path
   class="st0"
   d="m 715.16273,367.74409 c 0,-18.7 15.3,-34 34,-34 18.7,0 34,15.3 34,34 0,18.7 -15.3,34 -34,34 -18.7,0 -34,-15.3 -34,-34 z"
   id="path23074-0"
   style="fill:none;stroke:#010101;stroke-width:0.7087;stroke-linecap:round;stroke-linejoin:round;stroke-miterlimit:10" /><path
   class="st0"
   d="m 355.16273,367.74409 c 0,-18.7 15.3,-34 34,-34 18.7,0 34,15.3 34,34 0,18.7 -15.3,34 -34,34 -18.7,0 -34,-15.3 -34,-34 z"
   id="path23074-3"
   style="fill:none;stroke:#010101;stroke-width:0.7087;stroke-linecap:round;stroke-linejoin:round;stroke-miterlimit:10" />
<g
   id="g23078">
	<polygon
   class="st1"
   points="941.4,634.4 957.2,634.4 957.2,625.9 974.4,625.9 974.4,634.4 1017.9,634.4 1017.9,625.9    1035.1,625.9 1035.1,634.4 1080.3,634.4 1080.3,625.9 1097.6,625.9 1097.6,634.4 1111.5,634.4 1111.5,209.3 1097.6,209.3    1097.6,217.8 1080.3,217.8 1080.3,209.3 1035.1,209.3 1035.1,217.8 1017.9,217.8 1017.9,209.3 974.4,209.3 974.4,217.8    957.2,217.8 957.2,209.3 941.4,209.3 941.4,280.1 932.9,280.1 932.9,351 941.4,351 941.4,492.7 932.9,492.7 932.9,563.6    941.4,563.6  "
   id="polygon23076" />
</g>
<g
   aria-label="undroid shell game"
   id="text24029"
   style="font-size:40px;line-height:1.25"><path
     d="m 298.67261,255.12083 -2.256,7.92 h -10.944 l 2.208,-7.92 z m -19.968,0 -2.208,7.92 h -10.8 l 2.256,-7.872 z m 16.944,11.04 -6.048,21.888 -17.568,0.048 q -8.256,0 -10.224,-4.944 -0.528,-1.344 -0.528,-2.688 0,-0.768 0.192,-1.44 l 3.552,-12.864 h 10.656 l -3.408,11.904 q -0.24,0.816 -0.24,1.2 0,0.96 0.96,1.248 h 7.68 l 4.032,-14.352 z"
     style="font-size:48px;font-family:'Blade Runner Movie Font';-inkscape-font-specification:'Blade Runner Movie Font, Normal'"
     id="path34207" /><path
     d="m 334.96055,254.97683 -2.4,8.016 h -31.44 l 2.256,-8.016 h 10.896 l 7.104,6.768 1.728,-6.768 z m -3.024,11.184 -5.856,21.888 h -12.048 l 3.696,-13.296 -7.008,-6.384 -5.568,19.728 h -10.992 l 6,-21.936 z"
     style="font-size:48px;font-family:'Blade Runner Movie Font';-inkscape-font-specification:'Blade Runner Movie Font, Normal'"
     id="path34209" /><path
     d="m 368.84854,263.04083 h -33.264 l 5.136,-8.064 h 19.344 q 3.168,0 5.904,2.496 2.736,2.448 2.88,5.568 z m 0.576,3.12 q 0,8.448 -3.264,13.248 -2.64,3.888 -4.8,5.52 -4.32,3.216 -10.896,3.216 h -19.056 l 6.288,-21.984 h 11.808 l -3.984,13.392 q 1.152,0.48 2.448,0.48 2.4,0 4.992,-1.488 4.176,-2.352 5.472,-6.768 0.672,-2.256 0.768,-5.616 z"
     style="font-size:48px;font-family:'Blade Runner Movie Font';-inkscape-font-specification:'Blade Runner Movie Font, Normal'"
     id="path34211" /><path
     d="m 409.50449,262.94483 h -37.2 l 5.088,-7.968 h 27.312 q 1.104,0 2.208,0.768 1.152,0.768 1.728,1.824 0.864,1.584 0.864,5.376 z m -0.576,3.216 q -0.384,2.928 -3.36,5.52 -1.344,1.2 -2.256,1.488 1.104,1.728 1.104,3.648 0,1.104 -0.336,3.12 -0.192,1.248 -2.496,8.112 h -10.752 l 3.84,-13.2 h -11.328 l -4.08,13.2 h -11.184 l 6.432,-21.888 z"
     style="font-size:48px;font-family:'Blade Runner Movie Font';-inkscape-font-specification:'Blade Runner Movie Font, Normal'"
     id="path34213" /><path
     d="m 445.16845,263.04083 h -31.632 q 0.96,-3.264 3.264,-5.52 2.832,-2.736 5.856,-2.736 h 16.32 q 6.192,0 6.192,6.576 0,1.632 0,1.68 z m -0.672,3.072 -0.192,0.768 q -0.768,2.496 -2.64,9.12 -1.2,4.176 -3.696,7.008 -4.512,5.088 -12.096,5.088 h -5.712 q -4.608,0 -7.296,-1.728 -3.312,-2.064 -3.312,-6.384 0,-2.304 0.72,-4.896 l 2.4,-8.88 h 11.184 l -3.312,11.664 q -0.192,0.816 -0.192,1.248 0,0.96 0.864,1.2 h 6.96 q 1.296,-0.336 1.92,-2.448 l 3.456,-11.712 z"
     style="font-size:48px;font-family:'Blade Runner Movie Font';-inkscape-font-specification:'Blade Runner Movie Font, Normal'"
     id="path34215" /><path
     d="m 462.0164,254.97683 -2.208,8.064 h -11.568 l 2.304,-8.064 z m -2.928,11.184 -6,21.888 h -11.664 l 6.096,-21.888 z"
     style="font-size:48px;font-family:'Blade Runner Movie Font';-inkscape-font-specification:'Blade Runner Movie Font, Normal'"
     id="path34217" /><path
     d="m 496.91232,263.04083 h -33.264 l 5.136,-8.064 h 19.344 q 3.168,0 5.904,2.496 2.736,2.448 2.88,5.568 z m 0.576,3.12 q 0,8.448 -3.264,13.248 -2.64,3.888 -4.8,5.52 -4.32,3.216 -10.896,3.216 h -19.056 l 6.288,-21.984 h 11.808 l -3.984,13.392 q 1.152,0.48 2.448,0.48 2.4,0 4.992,-1.488 4.176,-2.352 5.472,-6.768 0.672,-2.256 0.768,-5.616 z"
     style="font-size:48px;font-family:'Blade Runner Movie Font';-inkscape-font-specification:'Blade Runner Movie Font, Normal'"
     id="path34219" /><path
     d="m 568.48019,254.97683 -2.16,7.968 h -31.104 q 1.008,-3.072 3.696,-5.424 2.928,-2.544 5.952,-2.544 z m -8.112,30.048 q -1.92,1.968 -5.952,3.072 l -26.208,-0.048 2.544,-9.12 18.144,0.096 q 2.352,-0.288 2.352,-2.304 0,-1.2 -0.336,-1.632 -0.288,-0.432 -1.44,-0.816 h -9.264 q -3.024,0 -4.416,-1.488 -1.392,-1.536 -1.392,-4.944 0,-1.68 0,-1.68 h 21.216 q 3.888,0.48 5.232,1.536 0.192,0.144 2.592,2.832 0.912,2.304 0.912,5.232 0,5.328 -3.984,9.264 z"
     style="font-size:48px;font-family:'Blade Runner Movie Font';-inkscape-font-specification:'Blade Runner Movie Font, Normal'"
     id="path34221" /><path
     d="m 604.57617,254.97683 -2.112,8.064 h -11.712 l 2.256,-8.064 z m -20.208,0 -2.16,8.064 h -11.52 l 2.112,-8.064 z m 17.136,11.184 -5.952,21.936 h -11.616 l 3.456,-13.248 h -8.4 l -3.696,13.2 h -11.76 l 6.048,-21.888 z"
     style="font-size:48px;font-family:'Blade Runner Movie Font';-inkscape-font-specification:'Blade Runner Movie Font, Normal'"
     id="path34223" /><path
     d="m 639.04009,254.97683 -2.112,8.064 h -31.296 l 5.184,-8.064 z m -3.12,11.184 -2.304,8.736 h -15.6 l -1.248,4.512 h 15.456 l -2.304,8.64 h -28.176 l 5.856,-21.888 z"
     style="font-size:48px;font-family:'Blade Runner Movie Font';-inkscape-font-specification:'Blade Runner Movie Font, Normal'"
     id="path34225" /><path
     d="m 657.08808,254.97683 -2.4,8.016 h -11.616 l 2.208,-7.92 z m 9.024,24.912 -6.72,8.16 h -23.328 l 6.192,-21.888 h 11.664 l -3.84,13.68 z"
     style="font-size:48px;font-family:'Blade Runner Movie Font';-inkscape-font-specification:'Blade Runner Movie Font, Normal'"
     id="path34227" /><path
     d="m 685.93607,254.97683 -2.4,8.016 h -11.616 l 2.208,-7.92 z m 9.024,24.912 -6.72,8.16 h -23.328 l 6.192,-21.888 h 11.664 l -3.84,13.68 z"
     style="font-size:48px;font-family:'Blade Runner Movie Font';-inkscape-font-specification:'Blade Runner Movie Font, Normal'"
     id="path34229" /><path
     d="m 765.75998,254.97683 -1.968,8.016 h -31.344 q 0.864,-2.784 3.36,-5.28 2.736,-2.736 5.712,-2.736 z m -2.832,12.384 -2.544,9.408 q -1.056,3.84 -3.216,6.384 -4.176,4.896 -12.144,4.896 h -5.76 q -8.352,0 -10.224,-4.752 -0.768,-1.92 -0.768,-3.504 0,-1.296 0.48,-3.072 l 2.976,-10.56 h 11.328 l -2.832,9.888 q -0.24,0.816 -0.24,1.2 0,0.96 0.96,1.248 h 6.816 q 1.44,-0.384 1.92,-2.448 l 0.096,-0.576 -7.104,0.096 5.088,-8.208 z"
     style="font-size:48px;font-family:'Blade Runner Movie Font';-inkscape-font-specification:'Blade Runner Movie Font, Normal'"
     id="path34231" /><path
     d="m 796.81596,263.04083 h -20.736 l 6.912,-8.064 h 12.096 z m 5.376,25.008 h -12.048 l -3.264,-13.056 h -6.816 l -9.648,13.056 h -14.064 l 17.184,-21.936 h 23.952 z"
     style="font-size:48px;font-family:'Blade Runner Movie Font';-inkscape-font-specification:'Blade Runner Movie Font, Normal'"
     id="path34233" /><path
     d="m 847.83997,254.97683 -2.256,8.064 h -38.016 l 2.256,-8.064 h 11.232 l 6.672,6.384 8.16,-6.384 z m -3.024,11.184 -6.192,21.888 h -11.952 l 5.472,-19.68 -8.112,6.576 -6.72,-6.576 -5.568,19.68 h -11.088 l 6.096,-21.888 z"
     style="font-size:48px;font-family:'Blade Runner Movie Font';-inkscape-font-specification:'Blade Runner Movie Font, Normal'"
     id="path34235" /><path
     d="m 881.77587,254.97683 -2.112,8.064 h -31.296 l 5.184,-8.064 z m -3.12,11.184 -2.304,8.736 h -15.6 l -1.248,4.512 h 15.456 l -2.304,8.64 h -28.176 l 5.856,-21.888 z"
     style="font-size:48px;font-family:'Blade Runner Movie Font';-inkscape-font-specification:'Blade Runner Movie Font, Normal'"
     id="path34237" /></g><text
   xml:space="preserve"
   style="font-style:normal;font-weight:normal;font-size:40px;line-height:1.25;font-family:sans-serif;fill:#000000;fill-opacity:1;stroke:none"
   x="370.6001"
   y="451.56311"
   id="text26569"><tspan
     sodipodi:role="line"
     id="tspan26567"
     x="370.6001"
     y="451.56311"
     style="font-style:normal;font-variant:normal;font-weight:normal;font-stretch:normal;font-size:40px;font-family:'Blade Runner Movie Font';-inkscape-font-specification:'Blade Runner Movie Font, Normal';font-variant-ligatures:normal;font-variant-caps:normal;font-variant-numeric:normal;font-variant-east-asian:normal">a</tspan></text><g
   aria-label="b"
   id="text26569-0"
   style="font-size:40px;line-height:1.25"><path
     d="m 579.55432,430.68311 h -28.72 l 5.76,-6.84 h 17.8 q 5.24,0 5.24,5.64 0,0.56 -0.08,1.2 z m -0.24,2.64 q 0,2.56 -3.12,3.76 1.16,1.96 1.24,2.08 0.44,1 0.44,2.56 0,0.16 0,0.8 -0.24,3.96 -3.2,6.4 -2.28,1.96 -4.96,2.64 l -21.84,-0.04 5.32,-18.2 z m -12.6,9.44 q 0,-1.2 -0.84,-1.36 h -6.24 l -0.76,2.8 h 6.2 q 0.56,0 1.08,-0.44 0.56,-0.44 0.56,-1 z"
     style="font-family:'Blade Runner Movie Font';-inkscape-font-specification:'Blade Runner Movie Font, Normal'"
     id="path34279" /></g><g
   aria-label="c"
   id="text26569-1"
   style="font-size:40px;line-height:1.25"><path
     d="m 763.68045,424.22465 -1.96,6.72 h -23.96 q 0.76,-2.56 2.8,-4.52 2.28,-2.2 4.72,-2.2 z m -5.68,20.2 -2.08,7.44 h -12.68 q -6.6,0 -8.4,-4.2 -0.56,-1.28 -0.36,-3.56 0.04,-0.44 0.16,-1.6 l 2.36,-8.92 9.92,-0.04 -2.88,8.84 q 0.12,0.52 0.24,1.08 0.36,0.72 1.48,0.96 z"
     style="font-family:'Blade Runner Movie Font';-inkscape-font-specification:'Blade Runner Movie Font, Normal'"
     id="path34300" /></g><g
   aria-label="start"
   id="text29529"
   style="font-size:40px;line-height:1.25"><path
     d="m 519.87408,573.66831 -1.8,6.64 h -25.92 q 0.84,-2.56 3.08,-4.52 2.44,-2.12 4.96,-2.12 z m -6.76,25.04 q -1.6,1.64 -4.96,2.56 l -21.84,-0.04 2.12,-7.6 15.12,0.08 q 1.96,-0.24 1.96,-1.92 0,-1 -0.28,-1.36 -0.24,-0.36 -1.2,-0.68 h -7.72 q -2.52,0 -3.68,-1.24 -1.16,-1.28 -1.16,-4.12 0,-1.4 0,-1.4 h 17.68 q 3.24,0.4 4.36,1.28 0.16,0.12 2.16,2.36 0.76,1.92 0.76,4.36 0,4.44 -3.32,7.72 z"
     style="font-family:'Blade Runner Movie Font';-inkscape-font-specification:'Blade Runner Movie Font, Normal'"
     id="path34321" /><path
     d="m 549.71406,573.66831 -1.84,6.64 h -26.64 l 4.24,-6.64 z m -10.36,9.32 -4.84,18.24 h -9.16 l 4.96,-18.24 z"
     style="font-family:'Blade Runner Movie Font';-inkscape-font-specification:'Blade Runner Movie Font, Normal'"
     id="path34323" /><path
     d="m 574.35402,580.38831 h -17.28 l 5.76,-6.72 h 10.08 z m 4.48,20.84 h -10.04 l -2.72,-10.88 h -5.68 l -8.04,10.88 h -11.72 l 14.32,-18.28 h 19.96 z"
     style="font-family:'Blade Runner Movie Font';-inkscape-font-specification:'Blade Runner Movie Font, Normal'"
     id="path34325" /><path
     d="m 612.15401,580.30831 h -31 l 4.24,-6.64 h 22.76 q 0.92,0 1.84,0.64 0.96,0.64 1.44,1.52 0.72,1.32 0.72,4.48 z m -0.48,2.68 q -0.32,2.44 -2.8,4.6 -1.12,1 -1.88,1.24 0.92,1.44 0.92,3.04 0,0.92 -0.28,2.6 -0.16,1.04 -2.08,6.76 h -8.96 l 3.2,-11 h -9.44 l -3.4,11 h -9.32 l 5.36,-18.24 z"
     style="font-family:'Blade Runner Movie Font';-inkscape-font-specification:'Blade Runner Movie Font, Normal'"
     id="path34327" /><path
     d="m 642.51397,573.66831 -1.84,6.64 h -26.64 l 4.24,-6.64 z m -10.36,9.32 -4.84,18.24 h -9.16 l 4.96,-18.24 z"
     style="font-family:'Blade Runner Movie Font';-inkscape-font-specification:'Blade Runner Movie Font, Normal'"
     id="path34329" /></g></svg>
